<?xml version="1.0" encoding="UTF-8"?>
<svg width="32" height="32" version="1.1" viewBox="0 0 8.4667 8.4667" xmlns="http://www.w3.org/2000/svg"><g style="fill:#fff;font-variant-caps:normal;font-variant-east-asian:normal;font-variant-ligatures:normal;font-variant-numeric:normal;stroke-width:.33114;stroke:#000" aria-label="∿"><path d="m0.16695 3.7697v1.2186c1.1259-1.7484 1.5895-2.1855 2.159-2.1855 0.56956 0 0.98017 0.67553 1.8941 2.0001 0.50333 0.74175 1.3246 1.6027 1.9868 1.6027 0.80798 0 1.2583-0.22518 2.0928-1.5232v-1.1524c-0.94044 1.4438-1.457 2.0001-2.0796 2.0001-0.59605 0-1.2848-0.91395-2.0133-2.0398-0.54307-0.84772-1.2451-1.6292-1.8809-1.6292-0.59605 0-1.2186 0.25167-2.159 1.7087z" style="fill:#fff;font-variant-caps:normal;font-variant-east-asian:normal;font-variant-ligatures:normal;font-variant-numeric:normal;stroke-width:.33114;stroke:#000"/></g><g style="fill:#fff;font-variant-caps:normal;font-variant-east-asian:normal;font-variant-ligatures:normal;font-variant-numeric:normal;stroke-width:.2844;stroke:#000" aria-label="∇"><path d="m4.2278 7.1518 2.3215-6.0202h-4.6429zm-0.61646 1.1718-3.2156-8.1806h7.6752l-3.2156 8.1806z" style="fill:#fff;font-variant-caps:normal;font-variant-east-asian:normal;font-variant-ligatures:normal;font-variant-numeric:normal;stroke-width:.2844;stroke:#000"/></g><g style="font-variant-caps:normal;font-variant-east-asian:normal;font-variant-ligatures:normal;font-variant-numeric:normal;stroke-width:.291" aria-label="♡"><path d="m2.1642 0.0041589q1.2392 0 1.8986 1.5632 0.15916 0.45475 0.15916 0.59118 0.034106 0 0.108-0.39791 0.63665-1.7565 1.9725-1.7565 1.188 0 1.8815 1.1994 0.21601 0.44338 0.21601 0.89813v0.073897q0 1.4666-1.2562 2.7797-2.5637 3.1321-2.9047 3.5073h-0.034106l-3.4561-4.2576q-0.68212-1.0118-0.68212-2.0464 0-1.1937 1.1312-1.8986 0.46043-0.2558 0.96634-0.2558zm-1.8076 2.0975v0.09095q0 1.2449 1.1824 2.5409l2.7001 3.2969h0.017053l3.2628-3.9734q0.59118-0.91518 0.59118-1.7735v-0.21601q0-0.97771-1.0743-1.6144-0.40359-0.15916-0.73328-0.15916-1.5007 0-1.9895 2.5409-0.056844 0.21601-0.056844 0.3638h-0.034106q0-0.44338-0.40928-1.6314-0.57412-1.2733-1.6485-1.2733-0.98908 0-1.5973 1.0061-0.21032 0.39791-0.21032 0.8015z" style="font-variant-caps:normal;font-variant-east-asian:normal;font-variant-ligatures:normal;font-variant-numeric:normal;stroke-width:.291"/></g><text x="-3.2862885" y="0.080876403" style="font-family:sans-serif;font-size:10.583px;line-height:1.25;stroke-width:.26458" xml:space="preserve"><tspan x="-3.2862885" y="0.080876403" style="stroke-width:.26458"/></text></svg>
