<?xml version="1.0" encoding="UTF-8" standalone="no"?>
<svg
   xmlns:dc="http://purl.org/dc/elements/1.1/"
   xmlns:cc="http://creativecommons.org/ns#"
   xmlns:rdf="http://www.w3.org/1999/02/22-rdf-syntax-ns#"
   xmlns:svg="http://www.w3.org/2000/svg"
   xmlns="http://www.w3.org/2000/svg"
   xmlns:sodipodi="http://sodipodi.sourceforge.net/DTD/sodipodi-0.dtd"
   xmlns:inkscape="http://www.inkscape.org/namespaces/inkscape"
   width="32"
   height="32"
   viewBox="0 0 8.4666667 8.4666667"
   version="1.1"
   id="svg8"
   inkscape:version="1.0.1 (0767f8302a, 2020-10-17)"
   sodipodi:docname="favicon_as_path.svg">
  <defs
     id="defs2">
    <rect
       x="-0.0011101396"
       y="0.0057325095"
       width="8.4545471"
       height="8.4464605"
       id="rect847" />
    <rect
       x="0.63034659"
       y="1.5657503"
       width="3.9984765"
       height="4.2828446"
       id="rect841" />
    <rect
       x="0.066489188"
       y="0.1647451"
       width="8.385823"
       height="8.2914973"
       id="rect835" />
  </defs>
  <sodipodi:namedview
     id="base"
     pagecolor="#ffffff"
     bordercolor="#666666"
     borderopacity="1.0"
     inkscape:pageopacity="0.0"
     inkscape:pageshadow="2"
     inkscape:zoom="11.313709"
     inkscape:cx="-1.2561158"
     inkscape:cy="14.726627"
     inkscape:document-units="mm"
     inkscape:current-layer="layer1"
     inkscape:document-rotation="0"
     showgrid="false"
     units="px"
     inkscape:window-width="1848"
     inkscape:window-height="1016"
     inkscape:window-x="72"
     inkscape:window-y="27"
     inkscape:window-maximized="1" />
  <metadata
     id="metadata5">
    <rdf:RDF>
      <cc:Work
         rdf:about="">
        <dc:format>image/svg+xml</dc:format>
        <dc:type
           rdf:resource="http://purl.org/dc/dcmitype/StillImage" />
        <dc:title></dc:title>
      </cc:Work>
    </rdf:RDF>
  </metadata>
  <g
     inkscape:label="Layer 1"
     inkscape:groupmode="layer"
     id="layer1">
    <g
       aria-label="∿"
       id="text861"
       style="font-style:normal;font-variant:normal;font-weight:normal;font-stretch:normal;font-size:13.2456px;line-height:1.25;font-family:serif;-inkscape-font-specification:'serif, Normal';font-variant-ligatures:normal;font-variant-caps:normal;font-variant-numeric:normal;font-variant-east-asian:normal;fill:#ffffff;stroke:#000000;stroke-width:0.331138;stroke-opacity:1">
      <path
         d="M 0.16694568,3.7697238 V 4.988319 C 1.2928217,3.2398998 1.7564177,2.802795 2.3259784,2.802795 c 0.5695608,0 0.9801744,0.6755256 1.8941208,2.0000856 0.5033328,0.7417536 1.32456,1.6027176 1.98684,1.6027176 0.8079816,0 1.2583319,-0.2251752 2.0928047,-1.523244 V 3.729987 C 7.3593063,5.1737574 6.842728,5.7300726 6.2201848,5.7300726 5.6241328,5.7300726 4.9353616,4.8161262 4.2068536,3.6902502 3.663784,2.8425318 2.9617672,2.0610415 2.3259784,2.0610415 c -0.5960519,0 -1.2185951,0.2516663 -2.15903272,1.7086823 z"
         style="font-style:normal;font-variant:normal;font-weight:normal;font-stretch:normal;font-size:13.2456px;font-family:serif;-inkscape-font-specification:'serif, Normal';font-variant-ligatures:normal;font-variant-caps:normal;font-variant-numeric:normal;font-variant-east-asian:normal;fill:#ffffff;stroke:#000000;stroke-width:0.331138;stroke-opacity:1"
         id="path852" />
    </g>
    <g
       aria-label="∇"
       id="text873"
       style="font-style:normal;font-variant:normal;font-weight:normal;font-stretch:normal;font-size:11.374px;line-height:1.25;font-family:sans-serif;-inkscape-font-specification:'sans-serif, Normal';font-variant-ligatures:normal;font-variant-caps:normal;font-variant-numeric:normal;font-variant-east-asian:normal;fill:#ffffff;fill-opacity:1;stroke:#000000;stroke-width:0.284398;stroke-miterlimit:4;stroke-dasharray:none;stroke-opacity:1">
      <path
         d="M 4.2277796,7.1518079 6.5492307,1.1315854 H 1.9063285 Z M 3.6113177,8.3236408 0.39571921,0.1430249 H 8.0709475 L 4.8553489,8.3236408 Z"
         style="font-style:normal;font-variant:normal;font-weight:normal;font-stretch:normal;font-size:11.374px;font-family:sans-serif;-inkscape-font-specification:'sans-serif, Normal';font-variant-ligatures:normal;font-variant-caps:normal;font-variant-numeric:normal;font-variant-east-asian:normal;fill:#ffffff;fill-opacity:1;stroke:#000000;stroke-width:0.284398;stroke-miterlimit:4;stroke-dasharray:none;stroke-opacity:1"
         id="path855" />
    </g>
    <g
       aria-label="♡"
       id="text857"
       style="font-style:normal;font-variant:normal;font-weight:normal;font-stretch:normal;font-size:11.6416px;line-height:1.25;font-family:serif;-inkscape-font-specification:'serif, Normal';font-variant-ligatures:normal;font-variant-caps:normal;font-variant-numeric:normal;font-variant-east-asian:normal;stroke-width:0.291;stroke-miterlimit:4;stroke-dasharray:none">
      <path
         d="m 2.1642209,0.00415893 q 1.2391937,0 1.8985812,1.56320307 0.1591625,0.45475 0.1591625,0.591175 0.034106,0 0.1080031,-0.3979062 0.63665,-1.75647187 1.9724781,-1.75647187 1.1880343,0 1.881528,1.19940307 0.2160063,0.4433813 0.2160063,0.8981312 v 0.073897 q 0,1.4665687 -1.2562469,2.7796593 Q 4.5800802,8.08734 4.2390177,8.4625088 H 4.2049115 L 0.74881156,4.2049119 Q 0.06668658,3.1930932 0.06668658,2.158537 q 0,-1.19371872 1.13119062,-1.8985812 Q 1.6583115,0.00415893 2.1642209,0.00415893 Z M 0.35658969,2.1016932 v 0.09095 q 0,1.2448781 1.18235001,2.5409156 l 2.700078,3.2969374 h 0.017053 L 7.518902,4.0571182 Q 8.110077,3.1419338 8.110077,2.2835932 V 2.067587 q 0,-0.9777125 -1.0743469,-1.61436246 -0.4035906,-0.15916249 -0.7332843,-0.15916249 -1.500675,0 -1.9895312,2.54091555 -0.056844,0.2160062 -0.056844,0.3638 h -0.034106 q 0,-0.4433813 -0.409275,-1.6314156 -0.5741219,-1.27329995 -1.6484687,-1.27329995 -0.9890812,0 -1.59730934,1.00613435 -0.21032187,0.3979062 -0.21032187,0.8014968 z"
         style="font-style:normal;font-variant:normal;font-weight:normal;font-stretch:normal;font-size:11.6416px;font-family:serif;-inkscape-font-specification:'serif, Normal';font-variant-ligatures:normal;font-variant-caps:normal;font-variant-numeric:normal;font-variant-east-asian:normal;stroke-width:0.291;stroke-miterlimit:4;stroke-dasharray:none"
         id="path849" />
    </g>
    <text
       xml:space="preserve"
       style="font-size:10.5833px;line-height:1.25;font-family:sans-serif;stroke-width:0.264583"
       x="-3.2862885"
       y="0.080876403"
       id="text865"><tspan
         sodipodi:role="line"
         id="tspan863"
         x="-3.2862885"
         y="0.080876403"
         style="stroke-width:0.264583" /></text>
  </g>
</svg>
